<?xml version="1.0" encoding="UTF-8"?>
<svg xmlns="http://www.w3.org/2000/svg" width="140" height="140" id="shopify">
  <path fill="none" stroke="#33363a" stroke-linecap="round" stroke-linejoin="round" stroke-miterlimit="10" stroke-width="3" d="M7.273 113.653h5.25M22.854 113.653h13.853M17.248 113.653h.981"></path>
  <path fill="#e6efe8" d="M45.77 45.708h52.072v66.682H45.77z"></path>
  <path fill="#fff" d="M80.961 70.868s-3.691-1.979-8.213-1.979c-6.635 0-6.971 4.184-6.971 5.236 0 5.754 14.922 7.959 14.922 21.434 0 10.6-6.689 17.426-15.713 17.426-10.824 0-16.363-6.771-16.363-6.771l2.9-9.623s5.691 4.91 10.494 4.91c3.135 0 4.412-2.482 4.412-4.297 0-7.504-12.242-7.84-12.242-20.17 0-10.377 7.412-20.422 22.375-20.422 5.764 0 8.615 1.66 8.615 1.66l-4.216 12.596z"></path>
  <path fill="#95c675" d="M119.689 35.173c-.4-.037-8.898-.668-8.898-.668s-5.904-5.889-6.551-6.539c-.65-.652-1.914-.453-2.406-.307-.07.02-1.289.398-3.303 1.021-1.975-5.701-5.453-10.941-11.572-10.941-.168 0-.346.008-.518.018-1.742-2.312-3.898-3.32-5.762-3.32-14.26 0-21.074 17.92-23.211 27.021a6308.572 6308.572 0 0 0-9.979 3.111c-3.096.977-3.193 1.072-3.598 4-.309 2.221-8.4 65.121-8.4 65.121l63.062 11.873 34.172-7.43s-11.992-81.498-12.068-82.059c-.077-.557-.563-.868-.968-.901zm-33.716-3.205-.002.621c-3.475 1.08-7.242 2.254-11.021 3.432 2.121-8.23 6.096-12.207 9.576-13.707.872 2.208 1.447 5.378 1.447 9.654zM80.285 18.28c.621 0 1.238.213 1.832.623-4.572 2.16-9.469 7.604-11.537 18.473-3.023.941-5.979 1.865-8.713 2.715 2.424-8.295 8.178-21.811 18.418-21.811zm2.459 48.463s-3.691-1.979-8.215-1.979c-6.635 0-6.969 4.184-6.969 5.234 0 5.756 14.92 7.961 14.92 21.436 0 10.6-6.689 17.424-15.713 17.424-10.824 0-16.361-6.77-16.361-6.77l2.898-9.623s5.691 4.91 10.496 4.91c3.133 0 4.412-2.484 4.412-4.297 0-7.504-12.244-7.842-12.244-20.172 0-10.375 7.414-20.42 22.377-20.42 5.762 0 8.613 1.66 8.613 1.66l-4.214 12.597zm6.967-35.316.002-1.158c0-3.541-.49-6.395-1.275-8.658 3.154.396 5.256 4.006 6.607 8.156l-5.334 1.66z"></path>
  <path fill="#79b259" d="m35.492 113.69 63.062 11.873 34.172-7.43s-11.992-81.498-12.068-82.059c-.078-.559-.564-.869-.969-.902-.4-.037-8.898-.668-8.898-.668s-5.904-5.889-6.551-6.539c-.65-.652-1.914-.453-2.406-.307-.07.02-1.289.398-3.303 1.021-1.975-5.701-5.453-10.941-11.572-10.941-.168 0-.346.008-.518.018-1.742-2.312-3.898-3.32-5.762-3.32-14.26 0-17.777 17.92-19.914 27.021m25.208-9.489-.002.621c-3.475 1.08-7.242 2.254-11.021 3.432 2.121-8.23 6.096-12.207 9.576-13.707.872 2.208 1.447 5.378 1.447 9.654zM80.285 18.28c.621 0 1.238.213 1.832.623-4.572 2.16-9.469 7.604-11.537 18.473-3.023.941-5.979 1.865-8.713 2.715 2.424-8.295 8.178-21.811 18.418-21.811zm2.459 48.463s-3.691-1.979-8.215-1.979c-6.635 0-6.969 4.184-6.969 5.234 0 5.756 14.92 7.961 14.92 21.436 0 10.6-6.689 17.424-15.713 17.424-10.824 0-16.361-6.77-16.361-6.77l2.898-9.623s5.691 4.91 10.496 4.91c3.133 0 4.412-2.484 4.412-4.297 0-7.504-12.244-7.842-12.244-20.172 0-10.375 7.414-20.42 22.377-20.42 5.762 0 8.613 1.66 8.613 1.66l-4.214 12.597zm6.967-35.316.002-1.158c0-3.541-.49-6.395-1.275-8.658 3.154.396 5.256 4.006 6.607 8.156l-5.334 1.66z"></path>
  <path fill="#55932c" d="m98.555 125.563 34.172-7.43s-11.992-81.498-12.068-82.059c-.078-.559-.564-.869-.969-.902-.4-.037-8.898-.668-8.898-.668s-5.904-5.889-6.551-6.539c-.348-.348-.863-.445-1.35-.449-1.299 2.197-1.029 6.369-1.029 6.369l-4.02 91.543.713.135z"></path>
  <path fill="#33363a" d="M86.959 17.739c-.168 0-.346.008-.518.018-1.742-2.312-3.898-3.32-5.762-3.32-14.203 0-21.021 17.777-23.184 26.914l4.404-1.365c2.439-8.301 8.184-21.705 18.385-21.705.621 0 1.238.213 1.832.623-4.561 2.154-9.441 7.58-11.52 18.391l4.375-1.352c2.125-8.178 6.086-12.135 9.553-13.629.873 2.209 1.447 5.379 1.447 9.654 0 .197 0 .381-.002.566l3.74-1.156.002-1.109c0-3.541-.49-6.395-1.275-8.658 3.145.395 5.244 3.986 6.594 8.121l3.49-1.082c-1.975-5.69-5.454-10.911-11.561-10.911z"></path>
  <path fill="none" stroke="#33363a" stroke-linecap="round" stroke-linejoin="round" stroke-miterlimit="10" stroke-width="3" d="M86.959 17.739c-.168 0-.346.008-.518.018-1.742-2.312-3.898-3.32-5.762-3.32-14.203 0-21.021 17.777-23.184 26.914l4.404-1.365c2.439-8.301 8.184-21.705 18.385-21.705.621 0 1.238.213 1.832.623-4.561 2.154-9.441 7.58-11.52 18.391l4.375-1.352c2.125-8.178 6.086-12.135 9.553-13.629.873 2.209 1.447 5.379 1.447 9.654 0 .197 0 .381-.002.566l3.74-1.156.002-1.109c0-3.541-.49-6.395-1.275-8.658 3.145.395 5.244 3.986 6.594 8.121l3.49-1.082c-1.975-5.69-5.454-10.911-11.561-10.911z"></path>
  <path fill="#4c822a" d="m112.219 34.612-1.428-.107s-5.904-5.889-6.551-6.539c-.348-.348-.863-.445-1.35-.449-1.299 2.197-1.029 6.369-1.029 6.369l-4.02 91.543.713.135 18.184-3.953-4.519-86.999z"></path>
  <path fill="none" stroke="#33363a" stroke-linecap="round" stroke-linejoin="round" stroke-miterlimit="10" stroke-width="3" d="M119.689 35.173c-.4-.037-8.898-.668-8.898-.668s-5.904-5.889-6.551-6.539c-.65-.652-1.914-.453-2.406-.307-.07.02-1.289.398-3.303 1.021-1.975-5.701-5.453-10.941-11.572-10.941-.168 0-.346.008-.518.018-1.742-2.312-3.898-3.32-5.762-3.32-14.26 0-21.074 17.92-23.211 27.021a6308.572 6308.572 0 0 0-9.979 3.111c-3.096.977-3.193 1.072-3.598 4-.309 2.221-8.4 65.121-8.4 65.121l63.062 11.873 34.172-7.43s-11.992-81.498-12.068-82.059c-.077-.557-.563-.868-.968-.901zm-33.716-3.205-.002.621c-3.475 1.08-7.242 2.254-11.021 3.432 2.121-8.23 6.096-12.207 9.576-13.707.872 2.208 1.447 5.378 1.447 9.654zM80.285 18.28c.621 0 1.238.213 1.832.623-4.572 2.16-9.469 7.604-11.537 18.473-3.023.941-5.979 1.865-8.713 2.715 2.424-8.295 8.178-21.811 18.418-21.811zm2.459 48.463s-3.691-1.979-8.215-1.979c-6.635 0-6.969 4.184-6.969 5.234 0 5.756 14.92 7.961 14.92 21.436 0 10.6-6.689 17.424-15.713 17.424-10.824 0-16.361-6.77-16.361-6.77l2.898-9.623s5.691 4.91 10.496 4.91c3.133 0 4.412-2.484 4.412-4.297 0-7.504-12.244-7.842-12.244-20.172 0-10.375 7.414-20.42 22.377-20.42 5.762 0 8.613 1.66 8.613 1.66l-4.214 12.597zm6.967-35.316.002-1.158c0-3.541-.49-6.395-1.275-8.658 3.154.396 5.256 4.006 6.607 8.156l-5.334 1.66z"></path>
</svg>
