<?xml version="1.0" encoding="UTF-8"?>
<svg xmlns="http://www.w3.org/2000/svg" viewBox="0 0 28 28" id="wordpress-simple">
  <path fill="#deff8f" d="m26.545 13.136c0 5.654-6.121 13.158-12.376 13.158s-10.274-7.504-10.274-13.158 5.071-11.477 11.325-11.477 11.325 5.823 11.325 11.477z"></path>
  <path fill="#ffab66" d="m19.388 6.87c-.126 1.888 1.728 7.071.786 10.056-.943 2.985-1.203 5.081-2.723-.327s-1.611-9.257-3.451-7.215.124 4.635-.976 6.756-2.043 6.442-3.064 2.435-1.885-9.572-3.142-9.735-3.249-.248-1.349 5.137 2.366 10.602 3.94 10.704 1.748-.334 3.154-2.826 2.348-6.892 3.448-3.278 2.2 7.306 3.928 4.085 5.133-12.277 4.059-14.349c-1.075-2.071-4.453-3.8-4.61-1.443z"></path>
  <path d="M9 24.858c-.208 0-.402-.131-.473-.339l-5.279-15.518c-.09-.262.05-.545.312-.634.263-.089.545.051.634.312l5.279 15.519c.089.262-.051.545-.312.634-.053.018-.108.026-.161.026zM11.436 25.712c-.053 0-.106-.008-.159-.026-.262-.088-.403-.371-.315-.633l3.255-9.709c.068-.202.257-.339.471-.341h.003c.212 0 .402.134.472.335l3.208 9.174c.003.004.018.035.036.065.139.239.057.545-.182.684-.238.14-.545.057-.684-.182-.039-.067-.072-.133-.103-.208l-2.738-7.826-2.792 8.325c-.069.211-.263.342-.472.342z"></path>
  <path d="m19.428 24.639c-.087 0-.175-.023-.255-.07-.21-.125-.299-.383-.211-.61.043-.111 4.283-11.106 4.526-14.062.027-.324-.017-.646-.06-.957-.472-2.323-2.558-2.44-2.971-2.44-1.129 0-1.251 1.003-1.251 1.435 0 .688.366 1.305.829 2.085l.128.216c.455.827.932 1.816.932 3.259 0 .957-.313 1.993-.746 3.428l-1.11 3.863c-.061.211-.252.358-.472.362-.216.01-.417-.137-.484-.346l-3.78-11.705c-.048-.147-.024-.309.063-.437.088-.128.229-.208.384-.216.49-.028.943-.076 1.103-.094.024-.102.012-.276-.028-.366h-5.345c-.037.097-.048.266-.026.371.204.022.585.064.98.087.202.012.376.144.443.334l1.625 4.65c.036.103.037.214.004.317l-2.285 7.148c-.066.207-.258.347-.476.348-.217 0-.409-.14-.476-.347l-3.802-11.798c-.048-.147-.024-.308.063-.436s.23-.208.385-.216c.509-.028.975-.078 1.118-.094.038-.112.026-.328-.03-.392-.26.028-3.157.036-3.407.027-.276-.01-.491-.242-.481-.518s.231-.507.518-.481c.173.005 2.15.002 3.436 0 .327 0 .616.167.793.46.124.204.192.466.192.739 0 .668-.384 1.154-.914 1.156 0 .002-.216.028-.526.055l3.129 9.709 1.76-5.505-1.461-4.182c-.441-.036-.797-.082-.797-.082-.243-.006-.501-.163-.654-.452-.122-.23-.147-.486-.147-.66 0-.718.392-1.239.931-1.239h5.532c.555 0 .958.519.958 1.233 0 .178-.028.439-.161.676-.158.283-.423.445-.727.447-.001.002-.217.028-.527.055l3.08 9.538.662-2.298c.408-1.353.703-2.33.703-3.139 0-1.206-.396-2.027-.801-2.764l-.119-.201c-.499-.839-.969-1.632-.969-2.595 0-1.456.905-2.435 2.251-2.435 1.519 0 3.464.843 3.949 3.219.06.433.114.827.079 1.259-.208 2.522-3.001 10.138-4.129 13.13.182.182.197.476.028.676l-.573.677c-.099.117-.24.178-.383.178zm-3.317-16.297c-.001 0-.002 0-.004.001.004 0 .006-.001.006-.001s-.001 0-.002 0zm-7.835 0s-.001 0-.002 0c.002.001.003 0 .002 0 .001 0 .001 0 0 0zm2.233-.003c.008 0 .021.002.04.004-.013-.003-.027-.004-.04-.004z"></path>
  <path d="m14 26c-6.617 0-12-5.383-12-12s5.383-12 12-12 12 5.383 12 12-5.383 12-12 12zm0-23c-6.065 0-11 4.935-11 11s4.935 11 11 11 11-4.935 11-11-4.935-11-11-11z"></path>
</svg>
